HIERARCHY
ROOT Hips
{
	OFFSET -0.001795 -0.223333 0.028219
	CHANNELS 6 Xposition Yposition Zposition Zrotation Yrotation Xrotation 
	JOINT LeftUpLeg
	{
		OFFSET 0.069520 -0.091406 -0.006815
		CHANNELS 3 Zrotation Yrotation Xrotation
		JOINT LeftLeg
		{
			OFFSET 0.034277 -0.375199 -0.004496
			CHANNELS 3 Zrotation Yrotation Xrotation
			JOINT LeftFoot
			{
				OFFSET -0.013596 -0.397961 -0.043693
				CHANNELS 3 Zrotation Yrotation Xrotation
				JOINT LeftToe
				{
					OFFSET 0.026358 -0.055791 0.119288
					CHANNELS 3 Zrotation Yrotation Xrotation
					End Site
					{
						OFFSET 0.000000 0.000000 0.000000
					}
				}
			}
		}
	}
	JOINT RightUpLeg
	{
		OFFSET -0.067670 -0.090522 -0.004320
		CHANNELS 3 Zrotation Yrotation Xrotation
		JOINT RightLeg
		{
			OFFSET -0.038290 -0.382569 -0.008850
			CHANNELS 3 Zrotation Yrotation Xrotation
			JOINT RightFoot
			{
				OFFSET 0.015774 -0.398415 -0.042312
				CHANNELS 3 Zrotation Yrotation Xrotation
				JOINT RightToe
				{
					OFFSET -0.025372 -0.048144 0.123348
					CHANNELS 3 Zrotation Yrotation Xrotation
					End Site
					{
						OFFSET 0.000000 0.000000 0.000000
					}
				}
			}
		}
	}
	JOINT Spine
	{
		OFFSET -0.002533 0.108963 -0.026696
		CHANNELS 3 Zrotation Yrotation Xrotation
		JOINT Spine1
		{
			OFFSET 0.005487 0.135180 0.001092
			CHANNELS 3 Zrotation Yrotation Xrotation
			JOINT Spine2
			{
				OFFSET 0.001457 0.052922 0.025425
				CHANNELS 3 Zrotation Yrotation Xrotation
				JOINT Neck
				{
					OFFSET -0.002778 0.213870 -0.042857
					CHANNELS 3 Zrotation Yrotation Xrotation
					JOINT Head
					{
						OFFSET 0.005152 0.064970 0.051349
						CHANNELS 3 Zrotation Yrotation Xrotation
     JOINT LeftEye
     {
     	OFFSET 0.030000 0.020000 0.080000
     	CHANNELS 3 Zrotation Yrotation Xrotation
     	End Site
     	{
     		OFFSET 0.000000 0.000000 0.020000
     	}
     }
     JOINT RightEye
     {
     	OFFSET -0.030000 0.020000 0.080000
     	CHANNELS 3 Zrotation Yrotation Xrotation
     	End Site
     	{
     		OFFSET 0.000000 0.000000 0.020000
     	}
     }
     JOINT Jaw
     {
     	OFFSET 0.000000 -0.040000 0.020000
     	CHANNELS 3 Zrotation Yrotation Xrotation
     	End Site
     	{
     		OFFSET 0.000000 -0.030000 0.040000
     	}
     }
     }
				}
				JOINT LeftShoulder
				{
					OFFSET 0.078845 0.121749 -0.034090
					CHANNELS 3 Zrotation Yrotation Xrotation
					JOINT LeftArm
					{
						OFFSET 0.090977 0.030469 -0.008868
						CHANNELS 3 Zrotation Yrotation Xrotation
						JOINT LeftForeArm
						{
							OFFSET 0.259612 -0.012772 -0.027456
							CHANNELS 3 Zrotation Yrotation Xrotation
							JOINT LeftHand
							{
								OFFSET 0.249234 0.008986 -0.001171
								CHANNELS 3 Zrotation Yrotation Xrotation
								End Site
								{
									OFFSET 0.000000 0.000000 0.000000
								}
							}
						}
					}
				}
				JOINT RightShoulder
				{
					OFFSET -0.081759 0.118833 -0.038615
					CHANNELS 3 Zrotation Yrotation Xrotation
					JOINT RightArm
					{
						OFFSET -0.096012 0.032551 -0.009143
						CHANNELS 3 Zrotation Yrotation Xrotation
						JOINT RightForeArm
						{
							OFFSET -0.253742 -0.013329 -0.021401
							CHANNELS 3 Zrotation Yrotation Xrotation
							JOINT RightHand
							{
								OFFSET -0.255298 0.007772 -0.005559
								CHANNELS 3 Zrotation Yrotation Xrotation
								End Site
								{
									OFFSET 0.000000 0.000000 0.000000
								}
							}
						}
					}
				}
			}
		}
	}
}
MOTION
Frames: 7
Frame Time: 0.050000
0.000000 0.850013 0.000000 -2.666744 1.186140 -10.291023 -2.939826 1.366292 12.398552 -0.796815 -0.775210 25.376900 7.440041 7.121067 -28.116987 0.000000 0.000000 0.000000 -5.316641 1.326901 -26.248222 5.861051 -1.904835 61.899338 -5.493630 -10.986848 -11.405095 0.000000 0.000000 0.000000 4.903831 -0.890205 12.100729 0.703015 -0.359502 0.338853 -4.299806 1.916153 6.217897 11.081070 -6.979306 -9.437360 0.000000 0.000000 0.000000 -23.905952 -3.639044 -1.399020 -44.297127 -5.661136 -3.096293 -6.159983 -24.255117 2.042727 0.000000 0.000000 0.000000 20.586651 -2.223812 -2.155722 53.034168 4.164668 -3.865189 2.341479 28.385908 1.790431 0.000000 0.000000 0.000000 0.000000 0.000000 0.000000 0.000000 0.000000 0.000000 0.000000 0.000000 0.000000
0.001806 0.848052 0.016854 -3.139037 -0.377099 -10.630763 -1.535343 1.562575 15.242779 -3.244593 0.190828 24.126408 7.445945 6.450369 -30.830679 0.000000 0.000000 0.000000 -4.386112 1.949941 -30.768652 6.911945 -2.121402 60.914890 -5.153668 -11.436333 -5.503669 0.000000 0.000000 0.000000 5.718187 -0.881476 11.671165 0.892942 -0.503906 1.478504 -5.510667 2.899816 5.930154 11.152196 -7.047391 -9.111466 0.000000 0.000000 0.000000 -24.572348 -5.396441 -0.676043 -42.681957 -7.778783 -2.125479 -5.272108 -23.724209 1.776177 0.000000 0.000000 0.000000 20.144258 -3.267877 -2.557579 54.869522 0.604965 -5.578929 1.665945 29.107992 1.751264 0.000000 0.000000 0.000000 -14.814815 -8.888889 -17.777779 -14.814815 8.888889 -17.777779 1.103545 0.416471 4.164713
0.002319 0.846868 0.035667 -2.761679 -1.445348 -11.135413 -3.461087 2.097738 17.403677 -0.960685 -0.456630 22.640539 7.361449 7.280853 -30.686640 0.000000 0.000000 0.000000 -3.706457 2.323947 -31.900349 7.430722 -1.956615 53.834408 -5.344630 -11.524927 -6.903840 0.000000 0.000000 0.000000 6.245865 -0.977066 12.612240 0.902044 -0.458657 0.050759 -6.509828 1.781472 7.248166 9.073853 -5.481819 -10.160120 0.000000 0.000000 0.000000 -23.500349 -5.589409 0.123715 -42.923885 -10.584464 -1.500867 -3.364996 -21.799494 1.351532 0.000000 0.000000 0.000000 20.691362 -4.944975 -3.903270 53.218197 -0.895607 -6.110254 2.349716 26.505766 1.617912 0.000000 0.000000 0.000000 -15.873015 -9.523809 -19.047619 -15.873015 9.523809 -19.047619 2.133479 0.762500 7.625003
0.001734 0.849360 0.056098 -2.547936 -2.299181 -11.662692 -3.981785 2.616901 20.457735 -0.541624 -0.496843 20.796665 7.024388 7.812137 -28.249182 0.000000 0.000000 0.000000 -2.406893 2.844656 -32.598549 6.496098 -1.098691 45.560493 -4.583630 -10.180164 -3.861202 0.000000 0.000000 0.000000 5.930598 -1.041462 13.983064 1.267876 -0.668895 0.620940 -6.357989 0.712117 6.010376 8.200192 -4.912508 -10.247585 0.000000 0.000000 0.000000 -23.531166 -5.066855 0.228328 -42.613937 -13.649070 -0.481751 -3.520257 -22.340477 1.454920 0.000000 0.000000 0.000000 18.443830 -6.297302 -4.699534 53.286129 -3.312924 -6.957405 4.045378 25.654001 1.804926 0.000000 0.000000 0.000000 0.000000 0.000000 0.000000 0.000000 0.000000 0.000000 2.896793 0.984206 9.842056
0.000217 0.851395 0.077889 -2.113855 -2.600181 -11.242983 -4.323034 2.980331 22.394249 -0.744435 -0.345846 17.616913 6.983713 8.959860 -26.302031 0.000000 0.000000 0.000000 -1.076332 3.261198 -32.507084 4.783243 -0.258565 36.207153 -3.490832 -7.743675 -2.479817 0.000000 0.000000 0.000000 5.457760 -1.013848 14.154454 1.331711 -0.714532 1.003911 -5.945751 -1.021712 4.770345 7.811246 -4.771909 -10.024705 0.000000 0.000000 0.000000 -23.872400 -6.008635 1.340694 -41.539024 -16.230612 0.279333 -3.442619 -23.523844 1.588310 0.000000 0.000000 0.000000 17.337807 -7.204272 -5.411695 52.569099 -5.964088 -7.805457 4.013965 24.008183 1.539924 0.000000 0.000000 0.000000 -14.814815 -8.888889 -17.777779 -14.814815 8.888889 -17.777779 3.257194 1.056115 10.561152
-0.002107 0.852897 0.102454 -2.028607 -1.546449 -10.194360 -3.596917 3.061942 24.419973 -0.667392 -0.311413 14.124708 6.589762 8.187000 -22.917053 0.000000 0.000000 0.000000 -0.318445 3.373919 -32.369122 3.198268 0.127114 28.761742 -4.108424 -9.354627 -2.502199 0.000000 0.000000 0.000000 5.608534 -1.011914 13.443380 2.185254 -1.185411 1.779566 -6.187825 -3.236991 3.887523 6.134838 -3.899465 -8.416617 0.000000 0.000000 0.000000 -22.110588 -7.999405 2.994997 -42.808735 -18.983412 1.224755 -1.462272 -24.597828 1.310187 0.000000 0.000000 0.000000 17.709326 -7.651045 -6.061387 51.051624 -7.968502 -8.227877 3.876549 23.229403 1.361661 0.000000 0.000000 0.000000 -15.873015 -9.523809 -19.047619 -15.873015 9.523809 -19.047619 3.171098 0.985077 9.850766
-0.005725 0.854168 0.131154 -1.701160 -2.263567 -8.689849 -3.231439 3.296174 26.076832 -1.241012 -0.075749 10.271919 6.255375 8.245506 -20.771303 0.000000 0.000000 0.000000 0.321063 3.663639 -32.710854 2.573975 0.364163 26.723238 -4.573452 -10.890857 -1.318598 0.000000 0.000000 0.000000 6.146876 -1.031090 12.896870 2.693862 -1.410048 1.221121 -7.118997 -4.114224 3.633917 6.580629 -4.275040 -8.224891 0.000000 0.000000 0.000000 -21.390196 -8.269651 3.449824 -41.903839 -22.085695 2.211151 -0.601674 -26.880545 1.291168 0.000000 0.000000 0.000000 17.951452 -8.371250 -6.702928 50.224102 -9.258646 -8.515852 3.318319 23.027197 1.190820 0.000000 0.000000 0.000000 -9.523809 -5.714286 -11.428572 -9.523809 5.714286 -11.428572 2.695905 0.805478 8.054778
